<?xml version="1.0" encoding="UTF-8" standalone="no"?>
<!-- Created with Inkscape (http://www.inkscape.org/) -->

<svg
   width="122.11621mm"
   height="79.961327mm"
   viewBox="0 0 122.11621 79.961324"
   version="1.1"
   id="svg277264"
   xmlns="http://www.w3.org/2000/svg"
   xmlns:svg="http://www.w3.org/2000/svg">
  <defs
     id="defs277261" />
  <g
     id="layer1"
     transform="translate(-40.315321,-108.10831)">
    <g
       id="g300001">
      <rect
         style="fill:#595959;fill-opacity:1;stroke-width:0.2;stroke-linecap:round;stroke-linejoin:round;stop-color:#000000"
         id="rect277369"
         width="121.90796"
         height="58.680229"
         x="40.315327"
         y="108.52782" />
      <rect
         style="fill:#919191;fill-opacity:1;stroke-width:0.2;stroke-linecap:round;stroke-linejoin:round;stop-color:#000000"
         id="rect277491"
         width="8.2407961"
         height="22.999851"
         x="-48.556122"
         y="144.20819"
         transform="scale(-1,1)" />
      <rect
         style="fill:#919191;fill-opacity:1;stroke-width:0.2;stroke-linecap:round;stroke-linejoin:round;stop-color:#000000"
         id="rect343096"
         width="24.116758"
         height="9.8827276"
         x="-72.477669"
         y="157.34154"
         transform="scale(-1,1)" />
    </g>
    <rect
       style="fill:#f9f9f9;fill-opacity:1;stroke-width:0.2;stroke-linecap:round;stroke-linejoin:round;stop-color:#000000"
       id="rect277451"
       width="38.041584"
       height="27.459896"
       x="124.1817"
       y="129.95354" />
    <rect
       style="fill:#dfdfdf;fill-opacity:1;stroke-width:0.2;stroke-linecap:round;stroke-linejoin:round;stop-color:#000000"
       id="rect277453"
       width="28.334415"
       height="21.425718"
       x="40.315323"
       y="108.52782" />
    <rect
       style="fill:#d0dbd4;fill-opacity:1;stroke-width:0.200001;stroke-linecap:round;stroke-linejoin:round;stop-color:#000000"
       id="rect277455"
       width="55.531963"
       height="27.459896"
       x="68.649742"
       y="129.95354" />
    <rect
       style="fill:#e6e6e6;fill-opacity:0.714286;stroke-width:0.200001;stroke-linecap:round;stroke-linejoin:round;stop-color:#000000"
       id="rect277457"
       width="28.151909"
       height="6.9961467"
       x="68.64975"
       y="-129.95354"
       transform="scale(1,-1)" />
    <rect
       style="fill:#cfe2ff;fill-opacity:1;stroke-width:0.200001;stroke-linecap:round;stroke-linejoin:round;stop-color:#000000"
       id="rect277479"
       width="28.146828"
       height="14.429561"
       x="68.654831"
       y="-122.95739"
       transform="scale(1,-1)" />
    <rect
       style="fill:#dfdfdf;fill-opacity:1;stroke-width:0.200001;stroke-linecap:round;stroke-linejoin:round;stop-color:#000000"
       id="rect307260"
       width="27.380045"
       height="21.425709"
       x="96.801659"
       y="-129.95354"
       transform="scale(1,-1)" />
    <g
       aria-label="ACCOMMODATION 2"
       id="text284121-1"
       style="font-size:2.00359px;line-height:1.25;font-family:'Font Awesome 5 Duotone';-inkscape-font-specification:'Font Awesome 5 Duotone';stroke-width:0.264582">
      <path
         d="m 101.80767,119.9573 -0.17806,-0.45492 h -0.57329 l -0.1761,0.45492 h -0.16827 l 0.56547,-1.43617 h 0.1399 l 0.56253,1.43617 z m -0.22991,-0.6046 -0.16631,-0.44318 q -0.0323,-0.0841 -0.0665,-0.20642 -0.0215,0.0939 -0.0616,0.20642 l -0.16827,0.44318 z"
         style="font-family:'Open Sans';-inkscape-font-specification:'Open Sans'"
         id="path2725" />
      <path
         d="m 102.78892,118.65516 q -0.23578,0 -0.37274,0.15751 -0.13599,0.15653 -0.13599,0.42948 0,0.28078 0.1311,0.43437 0.13207,0.15262 0.37567,0.15262 0.14968,0 0.34143,-0.0538 v 0.14577 q -0.1487,0.0558 -0.36687,0.0558 -0.31599,0 -0.48818,-0.19175 -0.1712,-0.19175 -0.1712,-0.54492 0,-0.2211 0.0822,-0.38741 0.0832,-0.16631 0.23871,-0.25632 0.15653,-0.09 0.36784,-0.09 0.22502,0 0.39329,0.0822 l -0.0704,0.14284 q -0.1624,-0.0763 -0.3248,-0.0763 z"
         style="font-family:'Open Sans';-inkscape-font-specification:'Open Sans'"
         id="path2727" />
      <path
         d="m 104.0529,118.65516 q -0.23577,0 -0.37274,0.15751 -0.13598,0.15653 -0.13598,0.42948 0,0.28078 0.13109,0.43437 0.13207,0.15262 0.37567,0.15262 0.14969,0 0.34143,-0.0538 v 0.14577 q -0.1487,0.0558 -0.36686,0.0558 -0.316,0 -0.48818,-0.19175 -0.17121,-0.19175 -0.17121,-0.54492 0,-0.2211 0.0822,-0.38741 0.0832,-0.16631 0.23871,-0.25632 0.15653,-0.09 0.36785,-0.09 0.22501,0 0.39328,0.0822 l -0.0704,0.14284 q -0.1624,-0.0763 -0.3248,-0.0763 z"
         style="font-family:'Open Sans';-inkscape-font-specification:'Open Sans'"
         id="path2729" />
      <path
         d="m 105.94594,119.24019 q 0,0.34339 -0.17414,0.54003 -0.17316,0.19664 -0.48231,0.19664 -0.316,0 -0.48818,-0.19272 -0.1712,-0.19371 -0.1712,-0.5459 0,-0.34926 0.17218,-0.54101 0.17218,-0.19273 0.48916,-0.19273 0.30817,0 0.48133,0.19566 0.17316,0.19567 0.17316,0.54003 z m -1.13974,0 q 0,0.29056 0.12327,0.44122 0.12425,0.14969 0.36002,0.14969 0.23773,0 0.35904,-0.14969 0.12131,-0.14968 0.12131,-0.44122 0,-0.2886 -0.12131,-0.4373 -0.12033,-0.14969 -0.35708,-0.14969 -0.23773,0 -0.36198,0.15066 -0.12327,0.14969 -0.12327,0.43633 z"
         style="font-family:'Open Sans';-inkscape-font-specification:'Open Sans'"
         id="path2731" />
      <path
         d="m 106.89882,119.9573 -0.48525,-1.2679 h -0.008 q 0.0137,0.15066 0.0137,0.35806 v 0.90984 h -0.15359 v -1.4303 h 0.25045 l 0.45296,1.17985 h 0.008 l 0.45688,-1.17985 h 0.24849 v 1.4303 h -0.16631 v -0.92157 q 0,-0.15849 0.0137,-0.34437 h -0.008 l -0.48916,1.26594 z"
         style="font-family:'Open Sans';-inkscape-font-specification:'Open Sans'"
         id="path2733" />
      <path
         d="m 108.70675,119.9573 -0.48525,-1.2679 h -0.008 q 0.0137,0.15066 0.0137,0.35806 v 0.90984 h -0.15359 v -1.4303 h 0.25044 l 0.45297,1.17985 h 0.008 l 0.45687,-1.17985 h 0.2485 v 1.4303 h -0.16632 v -0.92157 q 0,-0.15849 0.0137,-0.34437 h -0.008 l -0.48915,1.26594 z"
         style="font-family:'Open Sans';-inkscape-font-specification:'Open Sans'"
         id="path2735" />
      <path
         d="m 111.12319,119.24019 q 0,0.34339 -0.17414,0.54003 -0.17317,0.19664 -0.48231,0.19664 -0.316,0 -0.48818,-0.19272 -0.17121,-0.19371 -0.17121,-0.5459 0,-0.34926 0.17218,-0.54101 0.17219,-0.19273 0.48916,-0.19273 0.30817,0 0.48133,0.19566 0.17317,0.19567 0.17317,0.54003 z m -1.13974,0 q 0,0.29056 0.12327,0.44122 0.12424,0.14969 0.36002,0.14969 0.23773,0 0.35904,-0.14969 0.12131,-0.14968 0.12131,-0.44122 0,-0.2886 -0.12131,-0.4373 -0.12034,-0.14969 -0.35709,-0.14969 -0.23773,0 -0.36197,0.15066 -0.12327,0.14969 -0.12327,0.43633 z"
         style="font-family:'Open Sans';-inkscape-font-specification:'Open Sans'"
         id="path2737" />
      <path
         d="m 112.58479,119.22845 q 0,0.35415 -0.19273,0.54199 -0.19175,0.18686 -0.55275,0.18686 h -0.39622 v -1.4303 h 0.43829 q 0.33361,0 0.51851,0.1849 0.1849,0.1849 0.1849,0.51655 z m -0.1761,0.006 q 0,-0.2798 -0.14088,-0.42165 -0.13989,-0.14186 -0.41676,-0.14186 h -0.24164 v 1.14268 h 0.20251 q 0.29741,0 0.44709,-0.14577 0.14968,-0.14675 0.14968,-0.4334 z"
         style="font-family:'Open Sans';-inkscape-font-specification:'Open Sans'"
         id="path2739" />
      <path
         d="m 113.80181,119.9573 -0.17805,-0.45492 h -0.57329 l -0.1761,0.45492 h -0.16827 l 0.56547,-1.43617 h 0.1399 l 0.56253,1.43617 z m -0.2299,-0.6046 -0.16631,-0.44318 q -0.0323,-0.0841 -0.0665,-0.20642 -0.0215,0.0939 -0.0616,0.20642 l -0.16827,0.44318 z"
         style="font-family:'Open Sans';-inkscape-font-specification:'Open Sans'"
         id="path2741" />
      <path
         d="m 114.61088,119.9573 h -0.16631 v -1.28257 h -0.45296 V 118.527 h 1.07223 v 0.14773 h -0.45296 z"
         style="font-family:'Open Sans';-inkscape-font-specification:'Open Sans'"
         id="path2743" />
      <path
         d="m 115.27809,119.9573 v -1.4303 h 0.16631 v 1.4303 z"
         style="font-family:'Open Sans';-inkscape-font-specification:'Open Sans'"
         id="path2745" />
      <path
         d="m 117.07917,119.24019 q 0,0.34339 -0.17414,0.54003 -0.17316,0.19664 -0.48231,0.19664 -0.316,0 -0.48818,-0.19272 -0.1712,-0.19371 -0.1712,-0.5459 0,-0.34926 0.17218,-0.54101 0.17218,-0.19273 0.48916,-0.19273 0.30817,0 0.48133,0.19566 0.17316,0.19567 0.17316,0.54003 z m -1.13974,0 q 0,0.29056 0.12327,0.44122 0.12425,0.14969 0.36002,0.14969 0.23773,0 0.35904,-0.14969 0.12131,-0.14968 0.12131,-0.44122 0,-0.2886 -0.12131,-0.4373 -0.12033,-0.14969 -0.35708,-0.14969 -0.23773,0 -0.36198,0.15066 -0.12327,0.14969 -0.12327,0.43633 z"
         style="font-family:'Open Sans';-inkscape-font-specification:'Open Sans'"
         id="path2747" />
      <path
         d="m 118.51632,119.9573 h -0.1898 l -0.78167,-1.20039 h -0.008 q 0.0157,0.21131 0.0157,0.38741 v 0.81298 h -0.1536 v -1.4303 h 0.18784 l 0.77971,1.1955 h 0.008 q -0.002,-0.0264 -0.009,-0.16925 -0.007,-0.14381 -0.005,-0.20544 V 118.527 h 0.15556 z"
         style="font-family:'Open Sans';-inkscape-font-specification:'Open Sans'"
         id="path2749" />
      <path
         d="m 120.27141,119.9573 h -0.94016 v -0.1399 l 0.37665,-0.37861 q 0.17219,-0.17414 0.22697,-0.24849 0.0548,-0.0743 0.0822,-0.14479 0.0274,-0.0704 0.0274,-0.15164 0,-0.11446 -0.0695,-0.18099 -0.0695,-0.0675 -0.19272,-0.0675 -0.089,0 -0.16925,0.0293 -0.0793,0.0294 -0.17708,0.10663 l -0.0861,-0.11055 q 0.19762,-0.16435 0.43046,-0.16435 0.20153,0 0.316,0.1037 0.11446,0.10272 0.11446,0.27686 0,0.13599 -0.0763,0.26904 -0.0763,0.13305 -0.28567,0.33654 l -0.31306,0.30621 v 0.008 h 0.73569 z"
         style="font-family:'Open Sans';-inkscape-font-specification:'Open Sans'"
         id="path2751" />
    </g>
    <g
       aria-label="ACCOMMODATION 1"
       id="text284121-1-0"
       style="font-size:2.00359px;line-height:1.25;font-family:'Font Awesome 5 Duotone';-inkscape-font-specification:'Font Awesome 5 Duotone';stroke-width:0.264582">
      <path
         d="m 45.967761,119.95729 -0.178054,-0.45492 h -0.573293 l -0.176096,0.45492 h -0.168271 l 0.565467,-1.43617 h 0.139899 l 0.562531,1.43617 z m -0.229904,-0.6046 -0.166314,-0.44318 q -0.03228,-0.0841 -0.06652,-0.20642 -0.02152,0.0939 -0.06163,0.20642 l -0.168271,0.44318 z"
         style="font-family:'Open Sans';-inkscape-font-specification:'Open Sans'"
         id="path2884" />
      <path
         d="m 46.949011,118.65515 q -0.235774,0 -0.372738,0.15751 -0.135986,0.15653 -0.135986,0.42948 0,0.28078 0.131094,0.43437 0.132073,0.15262 0.375674,0.15262 0.149682,0 0.341432,-0.0538 v 0.14577 q -0.148704,0.0558 -0.366869,0.0558 -0.315996,0 -0.488179,-0.19175 -0.171205,-0.19175 -0.171205,-0.54492 0,-0.2211 0.08218,-0.38742 0.08316,-0.16631 0.238709,-0.25632 0.156531,-0.09 0.367847,-0.09 0.225012,0 0.393283,0.0822 l -0.07044,0.14283 q -0.1624,-0.0763 -0.324801,-0.0763 z"
         style="font-family:'Open Sans';-inkscape-font-specification:'Open Sans'"
         id="path2886" />
      <path
         d="m 48.212995,118.65515 q -0.235774,0 -0.372738,0.15751 -0.135986,0.15653 -0.135986,0.42948 0,0.28078 0.131094,0.43437 0.132073,0.15262 0.375673,0.15262 0.149682,0 0.341432,-0.0538 v 0.14577 q -0.148704,0.0558 -0.366868,0.0558 -0.315996,0 -0.48818,-0.19175 -0.171205,-0.19175 -0.171205,-0.54492 0,-0.2211 0.08218,-0.38742 0.08316,-0.16631 0.238709,-0.25632 0.15653,-0.09 0.367846,-0.09 0.225013,0 0.393283,0.0822 l -0.07044,0.14283 q -0.1624,-0.0763 -0.3248,-0.0763 z"
         style="font-family:'Open Sans';-inkscape-font-specification:'Open Sans'"
         id="path2888" />
      <path
         d="m 50.106035,119.24019 q 0,0.34338 -0.17414,0.54003 -0.173162,0.19664 -0.482309,0.19664 -0.315996,0 -0.48818,-0.19273 -0.171205,-0.19371 -0.171205,-0.5459 0,-0.34926 0.172183,-0.54101 0.172184,-0.19273 0.489158,-0.19273 0.30817,0 0.481331,0.19567 0.173162,0.19566 0.173162,0.54003 z m -1.139737,0 q 0,0.29056 0.123268,0.44122 0.124246,0.14968 0.36002,0.14968 0.23773,0 0.359041,-0.14968 0.121312,-0.14969 0.121312,-0.44122 0,-0.28861 -0.121312,-0.43731 -0.120332,-0.14968 -0.357085,-0.14968 -0.23773,0 -0.361976,0.15066 -0.123268,0.14968 -0.123268,0.43633 z"
         style="font-family:'Open Sans';-inkscape-font-specification:'Open Sans'"
         id="path2890" />
      <path
         d="m 51.058914,119.95729 -0.485244,-1.2679 h -0.0078 q 0.0137,0.15066 0.0137,0.35807 v 0.90983 h -0.153596 v -1.4303 h 0.250449 l 0.45296,1.17985 h 0.0078 l 0.456873,-1.17985 h 0.248492 v 1.4303 h -0.166314 v -0.92157 q 0,-0.15849 0.0137,-0.34437 h -0.0078 l -0.489157,1.26594 z"
         style="font-family:'Open Sans';-inkscape-font-specification:'Open Sans'"
         id="path2892" />
      <path
         d="m 52.866842,119.95729 -0.485245,-1.2679 h -0.0078 q 0.0137,0.15066 0.0137,0.35807 v 0.90983 h -0.153596 v -1.4303 h 0.250449 l 0.45296,1.17985 h 0.0078 l 0.456873,-1.17985 h 0.248492 v 1.4303 h -0.166313 v -0.92157 q 0,-0.15849 0.0137,-0.34437 h -0.0078 l -0.489158,1.26594 z"
         style="font-family:'Open Sans';-inkscape-font-specification:'Open Sans'"
         id="path2894" />
      <path
         d="m 55.28328,119.24019 q 0,0.34338 -0.17414,0.54003 -0.173162,0.19664 -0.482309,0.19664 -0.315996,0 -0.48818,-0.19273 -0.171205,-0.19371 -0.171205,-0.5459 0,-0.34926 0.172184,-0.54101 0.172183,-0.19273 0.489157,-0.19273 0.30817,0 0.481332,0.19567 0.173161,0.19566 0.173161,0.54003 z m -1.139737,0 q 0,0.29056 0.123268,0.44122 0.124246,0.14968 0.36002,0.14968 0.23773,0 0.359042,-0.14968 0.121311,-0.14969 0.121311,-0.44122 0,-0.28861 -0.121311,-0.43731 -0.120333,-0.14968 -0.357086,-0.14968 -0.23773,0 -0.361976,0.15066 -0.123268,0.14968 -0.123268,0.43633 z"
         style="font-family:'Open Sans';-inkscape-font-specification:'Open Sans'"
         id="path2896" />
      <path
         d="m 56.744884,119.22845 q 0,0.35415 -0.192728,0.54198 -0.19175,0.18686 -0.552748,0.18686 H 55.60319 v -1.4303 h 0.438285 q 0.333606,0 0.518507,0.18491 0.184902,0.1849 0.184902,0.51655 z m -0.176097,0.006 q 0,-0.2798 -0.140877,-0.42166 -0.139899,-0.14185 -0.416763,-0.14185 h -0.241643 v 1.14267 h 0.202511 q 0.297408,0 0.44709,-0.14577 0.149682,-0.14675 0.149682,-0.43339 z"
         style="font-family:'Open Sans';-inkscape-font-specification:'Open Sans'"
         id="path2898" />
      <path
         d="m 57.961909,119.95729 -0.178053,-0.45492 h -0.573293 l -0.176097,0.45492 h -0.16827 l 0.565466,-1.43617 h 0.139899 l 0.562532,1.43617 z m -0.229904,-0.6046 -0.166314,-0.44318 q -0.03228,-0.0841 -0.06652,-0.20642 -0.02152,0.0939 -0.06163,0.20642 l -0.16827,0.44318 z"
         style="font-family:'Open Sans';-inkscape-font-specification:'Open Sans'"
         id="path2900" />
      <path
         d="m 58.770976,119.95729 h -0.166314 v -1.28257 h -0.45296 v -0.14773 h 1.072234 v 0.14773 h -0.45296 z"
         style="font-family:'Open Sans';-inkscape-font-specification:'Open Sans'"
         id="path2902" />
      <path
         d="m 59.438186,119.95729 v -1.4303 H 59.6045 v 1.4303 z"
         style="font-family:'Open Sans';-inkscape-font-specification:'Open Sans'"
         id="path2904" />
      <path
         d="m 61.239265,119.24019 q 0,0.34338 -0.17414,0.54003 -0.173161,0.19664 -0.482309,0.19664 -0.315996,0 -0.48818,-0.19273 -0.171205,-0.19371 -0.171205,-0.5459 0,-0.34926 0.172184,-0.54101 0.172183,-0.19273 0.489157,-0.19273 0.30817,0 0.481332,0.19567 0.173161,0.19566 0.173161,0.54003 z m -1.139737,0 q 0,0.29056 0.123268,0.44122 0.124246,0.14968 0.36002,0.14968 0.23773,0 0.359042,-0.14968 0.121311,-0.14969 0.121311,-0.44122 0,-0.28861 -0.121311,-0.43731 -0.120333,-0.14968 -0.357086,-0.14968 -0.23773,0 -0.361976,0.15066 -0.123268,0.14968 -0.123268,0.43633 z"
         style="font-family:'Open Sans';-inkscape-font-specification:'Open Sans'"
         id="path2906" />
      <path
         d="m 62.676411,119.95729 h -0.189793 l -0.781674,-1.20039 h -0.0078 q 0.01565,0.21131 0.01565,0.38741 v 0.81298 h -0.153596 v -1.4303 h 0.187837 l 0.779717,1.1955 h 0.0078 q -0.002,-0.0264 -0.0088,-0.16924 -0.0068,-0.14382 -0.0049,-0.20545 v -0.82081 h 0.155552 z"
         style="font-family:'Open Sans';-inkscape-font-specification:'Open Sans'"
         id="path2908" />
      <path
         d="m 64.093012,119.95729 h -0.158487 v -1.0194 q 0,-0.12719 0.0078,-0.24067 -0.02054,0.0205 -0.04598,0.043 -0.02544,0.0225 -0.232839,0.19077 l -0.08609,-0.11153 0.378608,-0.29252 h 0.136964 z"
         style="font-family:'Open Sans';-inkscape-font-specification:'Open Sans'"
         id="path2910" />
    </g>
    <g
       aria-label="BATHROOMS"
       id="text284121-1-8"
       style="font-size:2.00359px;line-height:1.25;font-family:'Font Awesome 5 Duotone';-inkscape-font-specification:'Font Awesome 5 Duotone';stroke-width:0.264582">
      <path
         d="m 76.662202,115.02893 h 0.404045 q 0.284689,0 0.41187,0.0851 0.127181,0.0851 0.127181,0.26904 0,0.12718 -0.07142,0.21034 -0.07044,0.0822 -0.206424,0.10664 v 0.01 q 0.325779,0.0558 0.325779,0.34241 0,0.19175 -0.130116,0.29936 -0.129138,0.10762 -0.361977,0.10762 h -0.498941 z m 0.166314,0.61243 h 0.273928 q 0.176097,0 0.253384,-0.0548 0.07729,-0.0558 0.07729,-0.18686 0,-0.12033 -0.08609,-0.17316 -0.08609,-0.0538 -0.273928,-0.0538 h -0.244579 z m 0,0.14087 v 0.53514 h 0.298386 q 0.173162,0 0.260232,-0.0665 0.08805,-0.0675 0.08805,-0.21034 0,-0.13305 -0.09001,-0.19566 -0.08903,-0.0626 -0.271971,-0.0626 z"
         style="font-family:'Open Sans';-inkscape-font-specification:'Open Sans'"
         id="path2706" />
      <path
         d="m 78.860477,116.45923 -0.178053,-0.45492 h -0.573293 l -0.176097,0.45492 h -0.16827 l 0.565466,-1.43617 h 0.139899 l 0.562532,1.43617 z m -0.229904,-0.6046 -0.166314,-0.44318 q -0.03228,-0.0841 -0.06652,-0.20642 -0.02152,0.0939 -0.06163,0.20642 l -0.16827,0.44318 z"
         style="font-family:'Open Sans';-inkscape-font-specification:'Open Sans'"
         id="path2708" />
      <path
         d="M 79.669544,116.45923 H 79.50323 v -1.28257 h -0.45296 v -0.14773 h 1.072234 v 0.14773 h -0.45296 z"
         style="font-family:'Open Sans';-inkscape-font-specification:'Open Sans'"
         id="path2710" />
      <path
         d="m 81.422685,116.45923 h -0.166313 v -0.67308 h -0.753303 v 0.67308 h -0.166314 v -1.4303 h 0.166314 v 0.60851 h 0.753303 v -0.60851 h 0.166313 z"
         style="font-family:'Open Sans';-inkscape-font-specification:'Open Sans'"
         id="path2712" />
      <path
         d="m 81.982282,115.86441 v 0.59482 h -0.166314 v -1.4303 h 0.392305 q 0.263166,0 0.388391,0.10077 0.126202,0.10076 0.126202,0.30328 0,0.28371 -0.287624,0.3835 l 0.388391,0.64275 h -0.196641 l -0.346324,-0.59482 z m 0,-0.14283 h 0.227947 q 0.176097,0 0.258275,-0.0695 0.08218,-0.0704 0.08218,-0.21034 0,-0.14186 -0.08414,-0.20447 -0.08316,-0.0626 -0.268059,-0.0626 h -0.216207 z"
         style="font-family:'Open Sans';-inkscape-font-specification:'Open Sans'"
         id="path2714" />
      <path
         d="m 84.297955,115.74212 q 0,0.34339 -0.174141,0.54003 -0.173161,0.19664 -0.482309,0.19664 -0.315996,0 -0.488179,-0.19272 -0.171206,-0.19371 -0.171206,-0.5459 0,-0.34926 0.172184,-0.54101 0.172183,-0.19273 0.489158,-0.19273 0.308169,0 0.481331,0.19566 0.173162,0.19567 0.173162,0.54003 z m -1.139738,0 q 0,0.29056 0.123268,0.44122 0.124246,0.14969 0.36002,0.14969 0.237731,0 0.359042,-0.14969 0.121311,-0.14968 0.121311,-0.44122 0,-0.2886 -0.121311,-0.4373 -0.120333,-0.14969 -0.357085,-0.14969 -0.237731,0 -0.361977,0.15066 -0.123268,0.14969 -0.123268,0.43633 z"
         style="font-family:'Open Sans';-inkscape-font-specification:'Open Sans'"
         id="path2716" />
      <path
         d="m 85.859346,115.74212 q 0,0.34339 -0.17414,0.54003 -0.173162,0.19664 -0.48231,0.19664 -0.315996,0 -0.488179,-0.19272 -0.171205,-0.19371 -0.171205,-0.5459 0,-0.34926 0.172183,-0.54101 0.172184,-0.19273 0.489158,-0.19273 0.308169,0 0.481331,0.19566 0.173162,0.19567 0.173162,0.54003 z m -1.139738,0 q 0,0.29056 0.123268,0.44122 0.124246,0.14969 0.36002,0.14969 0.237731,0 0.359042,-0.14969 0.121311,-0.14968 0.121311,-0.44122 0,-0.2886 -0.121311,-0.4373 -0.120333,-0.14969 -0.357085,-0.14969 -0.237731,0 -0.361977,0.15066 -0.123268,0.14969 -0.123268,0.43633 z"
         style="font-family:'Open Sans';-inkscape-font-specification:'Open Sans'"
         id="path2718" />
      <path
         d="m 86.812225,116.45923 -0.485244,-1.2679 h -0.0078 q 0.0137,0.15066 0.0137,0.35807 v 0.90983 h -0.153596 v -1.4303 h 0.250449 l 0.45296,1.17985 h 0.0078 l 0.456874,-1.17985 h 0.248492 v 1.4303 h -0.166314 v -0.92157 q 0,-0.15849 0.0137,-0.34437 h -0.0078 l -0.489158,1.26594 z"
         style="font-family:'Open Sans';-inkscape-font-specification:'Open Sans'"
         id="path2720" />
      <path
         d="m 88.794292,116.07866 q 0,0.18882 -0.136964,0.29448 -0.136964,0.10565 -0.37176,0.10565 -0.254362,0 -0.391326,-0.0655 v -0.16045 q 0.08805,0.0372 0.19175,0.0587 0.103701,0.0215 0.205446,0.0215 0.166314,0 0.250449,-0.0626 0.08414,-0.0636 0.08414,-0.17609 0,-0.0744 -0.03033,-0.12131 -0.02935,-0.0479 -0.09979,-0.088 -0.06946,-0.0401 -0.212294,-0.091 -0.199577,-0.0714 -0.285668,-0.16924 -0.08511,-0.0978 -0.08511,-0.25534 0,-0.16534 0.124246,-0.26317 0.124246,-0.0978 0.328714,-0.0978 0.213273,0 0.392305,0.0783 l -0.05185,0.14479 q -0.177075,-0.0744 -0.344367,-0.0744 -0.132073,0 -0.206425,0.0567 -0.07435,0.0567 -0.07435,0.15751 0,0.0743 0.02739,0.12229 0.02739,0.047 0.09196,0.0871 0.06555,0.0391 0.199576,0.0871 0.225013,0.0802 0.309148,0.17218 0.08511,0.092 0.08511,0.23871 z"
         style="font-family:'Open Sans';-inkscape-font-specification:'Open Sans'"
         id="path2722" />
    </g>
    <g
       id="g277489"
       style="fill:#ececec;fill-opacity:1;stroke-width:1.16343"
       transform="matrix(1,0,0,0.73878506,0,41.086056)">
      <rect
         style="fill:#ececec;fill-opacity:1;stroke-width:0.232687;stroke-linecap:round;stroke-linejoin:round;stop-color:#000000"
         id="rect277483"
         width="38.129044"
         height="41.495426"
         x="-162.31075"
         y="157.45767"
         transform="scale(-1,1)" />
      <rect
         style="fill:#ececec;fill-opacity:1;stroke-width:0.232686;stroke-linecap:round;stroke-linejoin:round;stop-color:#000000"
         id="rect277485"
         width="51.771526"
         height="15.784566"
         x="72.410179"
         y="157.45767" />
    </g>
    <rect
       style="fill:#595959;fill-opacity:1;stroke-width:0.2;stroke-linecap:round;stroke-linejoin:round;stop-color:#000000"
       id="rect277493"
       width="28.27631"
       height="16.456512"
       x="40.373444"
       y="-146.41005"
       transform="scale(1,-1)" />
    <g
       aria-label="MAIN GALLERY"
       id="text277921"
       style="font-size:2.00359px;line-height:1.25;font-family:'Font Awesome 5 Duotone';-inkscape-font-specification:'Font Awesome 5 Duotone';stroke-width:0.264582">
      <path
         d="m 90.943824,144.55434 -0.485245,-1.2679 h -0.0078 q 0.0137,0.15066 0.0137,0.35806 v 0.90984 h -0.153596 v -1.4303 h 0.250449 l 0.45296,1.17985 h 0.0078 l 0.456873,-1.17985 h 0.248492 v 1.4303 h -0.166313 v -0.92158 q 0,-0.15848 0.0137,-0.34436 h -0.0078 l -0.489158,1.26594 z"
         style="font-family:'Open Sans';-inkscape-font-specification:'Open Sans'"
         id="path2790" />
      <path
         d="m 93.017852,144.55434 -0.178053,-0.45492 h -0.573293 l -0.176097,0.45492 h -0.16827 l 0.565466,-1.43617 h 0.1399 l 0.562531,1.43617 z m -0.229904,-0.6046 -0.166313,-0.44318 q -0.03229,-0.0841 -0.06653,-0.20642 -0.02152,0.0939 -0.06163,0.20642 l -0.16827,0.44318 z"
         style="font-family:'Open Sans';-inkscape-font-specification:'Open Sans'"
         id="path2792" />
      <path
         d="m 93.386677,144.55434 v -1.4303 h 0.166314 v 1.4303 z"
         style="font-family:'Open Sans';-inkscape-font-specification:'Open Sans'"
         id="path2794" />
      <path
         d="m 95.06351,144.55434 h -0.189793 l -0.781674,-1.2004 h -0.0078 q 0.01565,0.21132 0.01565,0.38742 v 0.81298 h -0.153595 v -1.4303 h 0.187836 l 0.779718,1.1955 h 0.0078 q -0.002,-0.0264 -0.0088,-0.16925 -0.0068,-0.14381 -0.0049,-0.20544 v -0.82081 h 0.155552 z"
         style="font-family:'Open Sans';-inkscape-font-specification:'Open Sans'"
         id="path2796" />
      <path
         d="m 96.606314,143.80495 h 0.486222 v 0.69558 q -0.113484,0.0362 -0.230882,0.0548 -0.117398,0.0186 -0.271972,0.0186 -0.324801,0 -0.505789,-0.19273 -0.180988,-0.1937 -0.180988,-0.54198 0,-0.22306 0.08903,-0.39035 0.09001,-0.16827 0.258276,-0.25632 0.16827,-0.089 0.394261,-0.089 0.228926,0 0.426545,0.0841 l -0.06457,0.14675 q -0.193707,-0.0822 -0.372739,-0.0822 -0.26121,0 -0.407957,0.15555 -0.146747,0.15555 -0.146747,0.43144 0,0.28958 0.140877,0.43926 0.141856,0.14968 0.415784,0.14968 0.148704,0 0.29056,-0.0342 v -0.44024 h -0.319909 z"
         style="font-family:'Open Sans';-inkscape-font-specification:'Open Sans'"
         id="path2798" />
      <path
         d="m 98.335975,144.55434 -0.178053,-0.45492 h -0.573293 l -0.176097,0.45492 h -0.16827 l 0.565466,-1.43617 h 0.139899 l 0.562532,1.43617 z m -0.229904,-0.6046 -0.166313,-0.44318 q -0.03229,-0.0841 -0.06653,-0.20642 -0.02152,0.0939 -0.06163,0.20642 l -0.16827,0.44318 z"
         style="font-family:'Open Sans';-inkscape-font-specification:'Open Sans'"
         id="path2800" />
      <path
         d="m 98.7048,144.55434 v -1.4303 h 0.166314 v 1.27964 h 0.631013 v 0.15066 z"
         style="font-family:'Open Sans';-inkscape-font-specification:'Open Sans'"
         id="path2802" />
      <path
         d="m 99.745728,144.55434 v -1.4303 h 0.166314 v 1.27964 h 0.631018 v 0.15066 z"
         style="font-family:'Open Sans';-inkscape-font-specification:'Open Sans'"
         id="path2804" />
      <path
         d="m 101.58398,144.55434 h -0.79732 v -1.4303 h 0.79732 v 0.14772 h -0.63101 v 0.46079 h 0.59286 v 0.14675 h -0.59286 v 0.52633 h 0.63101 z"
         style="font-family:'Open Sans';-inkscape-font-specification:'Open Sans'"
         id="path2806" />
      <path
         d="m 102.06825,143.95952 v 0.59482 h -0.16631 v -1.4303 h 0.3923 q 0.26317,0 0.38839,0.10077 0.1262,0.10076 0.1262,0.30327 0,0.28372 -0.28762,0.3835 l 0.38839,0.64276 h -0.19664 l -0.34633,-0.59482 z m 0,-0.14283 h 0.22795 q 0.17609,0 0.25827,-0.0695 0.0822,-0.0704 0.0822,-0.21034 0,-0.14186 -0.0841,-0.20447 -0.0832,-0.0626 -0.26805,-0.0626 h -0.21621 z"
         style="font-family:'Open Sans';-inkscape-font-specification:'Open Sans'"
         id="path2808" />
      <path
         d="m 103.50637,143.83919 0.38155,-0.71515 h 0.18001 l -0.47742,0.87559 v 0.55471 h -0.16827 v -0.54688 l -0.47644,-0.88342 h 0.18196 z"
         style="font-family:'Open Sans';-inkscape-font-specification:'Open Sans'"
         id="path2810" />
    </g>
    <rect
       style="fill:#cccccc;fill-opacity:1;stroke-width:0.2;stroke-linecap:round;stroke-linejoin:round;stop-color:#000000"
       id="rect300141"
       width="20.288843"
       height="10.931489"
       x="48.360909"
       y="146.41005" />
    <g
       aria-label="ARRIVAL GALLERY"
       id="text277921-4"
       style="font-size:2.00359px;line-height:1.25;font-family:'Font Awesome 5 Duotone';-inkscape-font-specification:'Font Awesome 5 Duotone';stroke-width:0.264582">
      <path
         d="m 51.301535,152.70705 -0.178053,-0.45492 h -0.573293 l -0.176097,0.45492 h -0.16827 l 0.565466,-1.43617 h 0.139899 l 0.562532,1.43617 z m -0.229904,-0.6046 -0.166313,-0.44318 q -0.03229,-0.0841 -0.06653,-0.20642 -0.02152,0.0939 -0.06163,0.20642 l -0.16827,0.44318 z"
         style="font-family:'Open Sans';-inkscape-font-specification:'Open Sans'"
         id="path2813" />
      <path
         d="m 51.836674,152.11223 v 0.59482 H 51.67036 v -1.4303 h 0.392305 q 0.263167,0 0.388391,0.10077 0.126203,0.10076 0.126203,0.30327 0,0.28372 -0.287625,0.3835 l 0.388391,0.64276 h -0.196641 l -0.346324,-0.59482 z m 0,-0.14283 h 0.227947 q 0.176097,0 0.258276,-0.0695 0.08218,-0.0704 0.08218,-0.21034 0,-0.14186 -0.08413,-0.20447 -0.08316,-0.0626 -0.268058,-0.0626 h -0.216208 z"
         style="font-family:'Open Sans';-inkscape-font-specification:'Open Sans'"
         id="path2815" />
      <path
         d="m 53.077178,152.11223 v 0.59482 h -0.166314 v -1.4303 h 0.392305 q 0.263167,0 0.388391,0.10077 0.126203,0.10076 0.126203,0.30327 0,0.28372 -0.287625,0.3835 l 0.388391,0.64276 h -0.196641 l -0.346324,-0.59482 z m 0,-0.14283 h 0.227947 q 0.176097,0 0.258276,-0.0695 0.08218,-0.0704 0.08218,-0.21034 0,-0.14186 -0.08413,-0.20447 -0.08316,-0.0626 -0.268058,-0.0626 h -0.216208 z"
         style="font-family:'Open Sans';-inkscape-font-specification:'Open Sans'"
         id="path2817" />
      <path
         d="m 54.151368,152.70705 v -1.4303 h 0.166314 v 1.4303 z"
         style="font-family:'Open Sans';-inkscape-font-specification:'Open Sans'"
         id="path2819" />
      <path
         d="m 55.527858,151.27675 h 0.179032 l -0.515572,1.4303 h -0.164357 l -0.512638,-1.4303 h 0.176097 l 0.328714,0.92549 q 0.05674,0.15946 0.09,0.31012 0.03522,-0.15849 0.09196,-0.31599 z"
         style="font-family:'Open Sans';-inkscape-font-specification:'Open Sans'"
         id="path2821" />
      <path
         d="m 56.803581,152.70705 -0.178053,-0.45492 h -0.573293 l -0.176097,0.45492 h -0.16827 l 0.565466,-1.43617 h 0.1399 l 0.562531,1.43617 z m -0.229904,-0.6046 -0.166313,-0.44318 q -0.03229,-0.0841 -0.06653,-0.20642 -0.02152,0.0939 -0.06163,0.20642 l -0.16827,0.44318 z"
         style="font-family:'Open Sans';-inkscape-font-specification:'Open Sans'"
         id="path2823" />
      <path
         d="m 57.172407,152.70705 v -1.4303 h 0.166313 v 1.27964 h 0.631014 v 0.15066 z"
         style="font-family:'Open Sans';-inkscape-font-specification:'Open Sans'"
         id="path2825" />
      <path
         d="m 59.362855,151.95766 h 0.486223 v 0.69558 q -0.113484,0.0362 -0.230882,0.0548 -0.117398,0.0186 -0.271972,0.0186 -0.324801,0 -0.505789,-0.19273 -0.180989,-0.1937 -0.180989,-0.54198 0,-0.22306 0.08903,-0.39035 0.09001,-0.16827 0.258275,-0.25632 0.168271,-0.089 0.394262,-0.089 0.228925,0 0.426545,0.0841 l -0.06457,0.14675 q -0.193706,-0.0822 -0.372738,-0.0822 -0.26121,0 -0.407957,0.15555 -0.146748,0.15555 -0.146748,0.43144 0,0.28958 0.140878,0.43926 0.141855,0.14968 0.415784,0.14968 0.148704,0 0.290559,-0.0342 v -0.44024 h -0.319909 z"
         style="font-family:'Open Sans';-inkscape-font-specification:'Open Sans'"
         id="path2827" />
      <path
         d="m 61.092517,152.70705 -0.178054,-0.45492 H 60.34117 l -0.176096,0.45492 h -0.168271 l 0.565467,-1.43617 h 0.139899 l 0.562531,1.43617 z m -0.229905,-0.6046 -0.166313,-0.44318 q -0.03229,-0.0841 -0.06653,-0.20642 -0.02152,0.0939 -0.06163,0.20642 l -0.168271,0.44318 z"
         style="font-family:'Open Sans';-inkscape-font-specification:'Open Sans'"
         id="path2829" />
      <path
         d="m 61.461341,152.70705 v -1.4303 h 0.166314 v 1.27964 h 0.631013 v 0.15066 z"
         style="font-family:'Open Sans';-inkscape-font-specification:'Open Sans'"
         id="path2831" />
      <path
         d="m 62.502269,152.70705 v -1.4303 h 0.166314 v 1.27964 h 0.631013 v 0.15066 z"
         style="font-family:'Open Sans';-inkscape-font-specification:'Open Sans'"
         id="path2833" />
      <path
         d="m 64.340524,152.70705 h -0.797327 v -1.4303 h 0.797327 v 0.14772 h -0.631013 v 0.46079 h 0.592859 v 0.14675 h -0.592859 v 0.52633 h 0.631013 z"
         style="font-family:'Open Sans';-inkscape-font-specification:'Open Sans'"
         id="path2835" />
      <path
         d="m 64.82479,152.11223 v 0.59482 h -0.166314 v -1.4303 h 0.392305 q 0.263167,0 0.388391,0.10077 0.126203,0.10076 0.126203,0.30327 0,0.28372 -0.287625,0.3835 l 0.388391,0.64276 H 65.4695 l -0.346324,-0.59482 z m 0,-0.14283 h 0.227947 q 0.176097,0 0.258276,-0.0695 0.08218,-0.0704 0.08218,-0.21034 0,-0.14186 -0.08414,-0.20447 -0.08316,-0.0626 -0.268058,-0.0626 H 64.82479 Z"
         style="font-family:'Open Sans';-inkscape-font-specification:'Open Sans'"
         id="path2837" />
      <path
         d="m 66.262914,151.9919 0.381543,-0.71515 h 0.18001 l -0.477418,0.87559 v 0.55471 h -0.16827 v -0.54688 l -0.47644,-0.88342 h 0.181967 z"
         style="font-family:'Open Sans';-inkscape-font-specification:'Open Sans'"
         id="path2839" />
    </g>
    <g
       aria-label="ENTRY"
       id="text277921-4-1"
       style="font-size:2.00359px;line-height:1.25;font-family:'Font Awesome 5 Duotone';-inkscape-font-specification:'Font Awesome 5 Duotone';fill:#ffffff;stroke-width:0.264582">
      <path
         d="m 53.892635,162.76402 h -0.797327 v -1.43029 h 0.797327 v 0.14772 h -0.631014 v 0.46079 h 0.59286 v 0.14675 h -0.59286 v 0.52633 h 0.631014 z"
         style="font-family:'Open Sans';-inkscape-font-specification:'Open Sans'"
         id="path2842" />
      <path
         d="m 55.327824,162.76402 h -0.189793 l -0.781675,-1.20039 h -0.0078 q 0.01565,0.21132 0.01565,0.38741 v 0.81298 H 54.21061 v -1.43029 h 0.187837 l 0.779717,1.1955 h 0.0078 q -0.002,-0.0264 -0.0088,-0.16925 -0.0068,-0.14381 -0.0049,-0.20545 v -0.8208 h 0.155552 z"
         style="font-family:'Open Sans';-inkscape-font-specification:'Open Sans'"
         id="path2844" />
      <path
         d="m 56.161348,162.76402 h -0.166313 v -1.28257 h -0.45296 v -0.14772 h 1.072234 v 0.14772 h -0.452961 z"
         style="font-family:'Open Sans';-inkscape-font-specification:'Open Sans'"
         id="path2846" />
      <path
         d="m 56.994873,162.16921 v 0.59481 H 56.82856 v -1.43029 h 0.392304 q 0.263167,0 0.388392,0.10076 0.126202,0.10077 0.126202,0.30328 0,0.28371 -0.287624,0.3835 l 0.388391,0.64275 h -0.196642 l -0.346323,-0.59481 z m 0,-0.14284 h 0.227948 q 0.176097,0 0.258275,-0.0695 0.08218,-0.0704 0.08218,-0.21034 0,-0.14185 -0.08413,-0.20446 -0.08316,-0.0626 -0.268059,-0.0626 h -0.216208 z"
         style="font-family:'Open Sans';-inkscape-font-specification:'Open Sans'"
         id="path2848" />
      <path
         d="m 58.432997,162.04887 0.381543,-0.71514 h 0.18001 l -0.477418,0.87559 v 0.5547 h -0.16827 v -0.54688 l -0.47644,-0.88341 h 0.181967 z"
         style="font-family:'Open Sans';-inkscape-font-specification:'Open Sans'"
         id="path2850" />
    </g>
    <g
       aria-label="RESTAURANT"
       id="text282069"
       style="font-size:2.00359px;line-height:1.25;font-family:'Font Awesome 5 Duotone';-inkscape-font-specification:'Font Awesome 5 Duotone';stroke-width:0.264582">
      <path
         d="m 137.26754,143.69716 v 0.59482 h -0.16631 v -1.4303 h 0.3923 q 0.26317,0 0.38839,0.10077 0.12621,0.10076 0.12621,0.30327 0,0.28372 -0.28763,0.3835 l 0.38839,0.64276 h -0.19664 l -0.34632,-0.59482 z m 0,-0.14283 h 0.22795 q 0.1761,0 0.25827,-0.0695 0.0822,-0.0704 0.0822,-0.21034 0,-0.14186 -0.0841,-0.20447 -0.0832,-0.0626 -0.26806,-0.0626 h -0.21621 z"
         style="font-family:'Open Sans';-inkscape-font-specification:'Open Sans'"
         id="path2769" />
      <path
         d="m 139.13906,144.29198 h -0.79733 v -1.4303 h 0.79733 v 0.14773 h -0.63101 v 0.46078 h 0.59286 v 0.14675 h -0.59286 v 0.52633 h 0.63101 z"
         style="font-family:'Open Sans';-inkscape-font-specification:'Open Sans'"
         id="path2771" />
      <path
         d="m 140.26412,143.91141 q 0,0.18882 -0.13696,0.29448 -0.13697,0.10565 -0.37176,0.10565 -0.25436,0 -0.39133,-0.0655 v -0.16045 q 0.0881,0.0372 0.19175,0.0587 0.1037,0.0215 0.20545,0.0215 0.16631,0 0.25045,-0.0626 0.0841,-0.0636 0.0841,-0.17609 0,-0.0744 -0.0303,-0.12132 -0.0293,-0.0479 -0.0998,-0.088 -0.0695,-0.0401 -0.2123,-0.091 -0.19957,-0.0714 -0.28567,-0.16925 -0.0851,-0.0978 -0.0851,-0.25534 0,-0.16533 0.12425,-0.26316 0.12424,-0.0978 0.32871,-0.0978 0.21327,0 0.3923,0.0783 l -0.0519,0.14479 q -0.17707,-0.0744 -0.34436,-0.0744 -0.13208,0 -0.20643,0.0567 -0.0744,0.0567 -0.0744,0.15751 0,0.0743 0.0274,0.12229 0.0274,0.047 0.092,0.0871 0.0656,0.0391 0.19958,0.0871 0.22501,0.0802 0.30915,0.17218 0.0851,0.092 0.0851,0.23871 z"
         style="font-family:'Open Sans';-inkscape-font-specification:'Open Sans'"
         id="path2773" />
      <path
         d="m 140.99688,144.29198 h -0.16631 v -1.28257 h -0.45296 v -0.14773 h 1.07223 v 0.14773 h -0.45296 z"
         style="font-family:'Open Sans';-inkscape-font-specification:'Open Sans'"
         id="path2775" />
      <path
         d="m 142.56316,144.29198 -0.17805,-0.45492 h -0.57329 l -0.1761,0.45492 h -0.16827 l 0.56547,-1.43617 h 0.1399 l 0.56253,1.43617 z m -0.2299,-0.6046 -0.16631,-0.44318 q -0.0323,-0.0841 -0.0665,-0.20642 -0.0215,0.0939 -0.0616,0.20642 l -0.16827,0.44318 z"
         style="font-family:'Open Sans';-inkscape-font-specification:'Open Sans'"
         id="path2777" />
      <path
         d="m 144.01205,142.86168 v 0.92549 q 0,0.24458 -0.14773,0.38447 -0.14772,0.1399 -0.406,0.1399 -0.25827,0 -0.40013,-0.14087 -0.14088,-0.14088 -0.14088,-0.38742 v -0.92157 h 0.16632 v 0.93331 q 0,0.17903 0.0978,0.27491 0.0978,0.0959 0.28762,0.0959 0.18099,0 0.27882,-0.0959 0.0978,-0.0968 0.0978,-0.27686 v -0.93136 z"
         style="font-family:'Open Sans';-inkscape-font-specification:'Open Sans'"
         id="path2779" />
      <path
         d="m 144.55795,143.69716 v 0.59482 h -0.16631 v -1.4303 h 0.3923 q 0.26317,0 0.38839,0.10077 0.1262,0.10076 0.1262,0.30327 0,0.28372 -0.28762,0.3835 l 0.38839,0.64276 h -0.19664 l -0.34632,-0.59482 z m 0,-0.14283 h 0.22795 q 0.17609,0 0.25827,-0.0695 0.0822,-0.0704 0.0822,-0.21034 0,-0.14186 -0.0841,-0.20447 -0.0832,-0.0626 -0.26806,-0.0626 H 144.558 Z"
         style="font-family:'Open Sans';-inkscape-font-specification:'Open Sans'"
         id="path2781" />
      <path
         d="m 146.53121,144.29198 -0.17805,-0.45492 h -0.57329 l -0.1761,0.45492 h -0.16827 l 0.56546,-1.43617 h 0.1399 l 0.56254,1.43617 z m -0.2299,-0.6046 -0.16632,-0.44318 q -0.0323,-0.0841 -0.0665,-0.20642 -0.0215,0.0939 -0.0616,0.20642 l -0.16827,0.44318 z"
         style="font-family:'Open Sans';-inkscape-font-specification:'Open Sans'"
         id="path2783" />
      <path
         d="m 148.01727,144.29198 h -0.18979 l -0.78167,-1.2004 h -0.008 q 0.0156,0.21132 0.0156,0.38742 v 0.81298 h -0.15359 v -1.4303 h 0.18783 l 0.77972,1.1955 h 0.008 q -0.002,-0.0264 -0.009,-0.16925 -0.007,-0.14381 -0.005,-0.20544 v -0.82081 h 0.15555 z"
         style="font-family:'Open Sans';-inkscape-font-specification:'Open Sans'"
         id="path2785" />
      <path
         d="m 148.8508,144.29198 h -0.16632 v -1.28257 h -0.45296 v -0.14773 h 1.07224 v 0.14773 h -0.45296 z"
         style="font-family:'Open Sans';-inkscape-font-specification:'Open Sans'"
         id="path2787" />
    </g>
    <g
       aria-label="AL FRESCO DINING"
       id="text284121"
       style="font-size:2.00359px;line-height:1.25;font-family:'Font Awesome 5 Duotone';-inkscape-font-specification:'Font Awesome 5 Duotone';stroke-width:0.264582">
      <path
         d="m 116.63099,164.15752 -0.17805,-0.45492 h -0.57329 l -0.1761,0.45492 h -0.16827 l 0.56546,-1.43617 h 0.1399 l 0.56254,1.43617 z m -0.2299,-0.6046 -0.16632,-0.44318 q -0.0323,-0.0841 -0.0665,-0.20642 -0.0215,0.0939 -0.0616,0.20642 l -0.16827,0.44318 z"
         style="font-family:'Open Sans';-inkscape-font-specification:'Open Sans'"
         id="path2913" />
      <path
         d="m 116.99982,164.15752 v -1.4303 h 0.16631 v 1.27964 h 0.63101 v 0.15066 z"
         style="font-family:'Open Sans';-inkscape-font-specification:'Open Sans'"
         id="path2915" />
      <path
         d="m 118.72752,164.15752 h -0.16631 v -1.4303 h 0.79733 v 0.14772 h -0.63102 v 0.5234 h 0.59286 v 0.14773 h -0.59286 z"
         style="font-family:'Open Sans';-inkscape-font-specification:'Open Sans'"
         id="path2917" />
      <path
         d="m 119.76062,163.5627 v 0.59482 h -0.16631 v -1.4303 h 0.3923 q 0.26317,0 0.3884,0.10077 0.1262,0.10076 0.1262,0.30327 0,0.28372 -0.28763,0.3835 l 0.38839,0.64276 h -0.19664 l -0.34632,-0.59482 z m 0,-0.14283 h 0.22795 q 0.1761,0 0.25828,-0.0695 0.0822,-0.0704 0.0822,-0.21034 0,-0.14186 -0.0841,-0.20447 -0.0832,-0.0626 -0.26806,-0.0626 h -0.21621 z"
         style="font-family:'Open Sans';-inkscape-font-specification:'Open Sans'"
         id="path2919" />
      <path
         d="m 121.63214,164.15752 h -0.79733 v -1.4303 h 0.79733 v 0.14772 h -0.63101 v 0.46079 h 0.59286 v 0.14675 h -0.59286 v 0.52633 h 0.63101 z"
         style="font-family:'Open Sans';-inkscape-font-specification:'Open Sans'"
         id="path2921" />
      <path
         d="m 122.7572,163.77695 q 0,0.18882 -0.13696,0.29447 -0.13697,0.10566 -0.37176,0.10566 -0.25436,0 -0.39133,-0.0655 v -0.16045 q 0.088,0.0372 0.19175,0.0587 0.1037,0.0215 0.20545,0.0215 0.16631,0 0.25045,-0.0626 0.0841,-0.0636 0.0841,-0.1761 0,-0.0743 -0.0303,-0.12131 -0.0293,-0.0479 -0.0998,-0.088 -0.0695,-0.0401 -0.2123,-0.091 -0.19957,-0.0714 -0.28567,-0.16925 -0.0851,-0.0978 -0.0851,-0.25534 0,-0.16533 0.12425,-0.26316 0.12424,-0.0978 0.32871,-0.0978 0.21327,0 0.39231,0.0783 l -0.0519,0.14479 q -0.17707,-0.0744 -0.34436,-0.0744 -0.13208,0 -0.20643,0.0567 -0.0743,0.0567 -0.0743,0.15751 0,0.0744 0.0274,0.12229 0.0274,0.047 0.092,0.0871 0.0655,0.0391 0.19957,0.0871 0.22501,0.0802 0.30915,0.17218 0.0851,0.092 0.0851,0.23871 z"
         style="font-family:'Open Sans';-inkscape-font-specification:'Open Sans'"
         id="path2923" />
      <path
         d="m 123.66215,162.85538 q -0.23578,0 -0.37274,0.15751 -0.13599,0.15653 -0.13599,0.42948 0,0.28077 0.1311,0.43437 0.13207,0.15262 0.37567,0.15262 0.14968,0 0.34143,-0.0538 v 0.14577 q -0.1487,0.0558 -0.36687,0.0558 -0.31599,0 -0.48818,-0.19175 -0.1712,-0.19175 -0.1712,-0.54492 0,-0.2211 0.0822,-0.38741 0.0831,-0.16632 0.23871,-0.25632 0.15653,-0.09 0.36784,-0.09 0.22501,0 0.39328,0.0822 l -0.0704,0.14284 q -0.1624,-0.0763 -0.3248,-0.0763 z"
         style="font-family:'Open Sans';-inkscape-font-specification:'Open Sans'"
         id="path2925" />
      <path
         d="m 125.55519,163.44041 q 0,0.34339 -0.17414,0.54003 -0.17317,0.19664 -0.48231,0.19664 -0.316,0 -0.48818,-0.19273 -0.17121,-0.1937 -0.17121,-0.5459 0,-0.34925 0.17218,-0.541 0.17219,-0.19273 0.48916,-0.19273 0.30817,0 0.48133,0.19566 0.17317,0.19566 0.17317,0.54003 z m -1.13974,0 q 0,0.29056 0.12327,0.44122 0.12424,0.14968 0.36002,0.14968 0.23773,0 0.35904,-0.14968 0.12131,-0.14968 0.12131,-0.44122 0,-0.2886 -0.12131,-0.43731 -0.12034,-0.14968 -0.35709,-0.14968 -0.23773,0 -0.36197,0.15066 -0.12327,0.14968 -0.12327,0.43633 z"
         style="font-family:'Open Sans';-inkscape-font-specification:'Open Sans'"
         id="path2927" />
      <path
         d="m 127.53725,163.42867 q 0,0.35415 -0.19273,0.54199 -0.19175,0.18686 -0.55274,0.18686 h -0.39622 v -1.4303 h 0.43828 q 0.33361,0 0.51851,0.1849 0.1849,0.1849 0.1849,0.51655 z m -0.17609,0.006 q 0,-0.2798 -0.14088,-0.42165 -0.1399,-0.14186 -0.41676,-0.14186 h -0.24165 v 1.14267 h 0.20251 q 0.29741,0 0.44709,-0.14576 0.14969,-0.14675 0.14969,-0.4334 z"
         style="font-family:'Open Sans';-inkscape-font-specification:'Open Sans'"
         id="path2929" />
      <path
         d="m 127.85521,164.15752 v -1.4303 h 0.16631 v 1.4303 z"
         style="font-family:'Open Sans';-inkscape-font-specification:'Open Sans'"
         id="path2931" />
      <path
         d="m 129.53204,164.15752 h -0.18979 l -0.78168,-1.2004 h -0.008 q 0.0157,0.21132 0.0157,0.38742 v 0.81298 h -0.1536 v -1.4303 h 0.18784 l 0.77972,1.1955 h 0.008 q -0.002,-0.0264 -0.009,-0.16925 -0.007,-0.14381 -0.005,-0.20544 v -0.82081 h 0.15555 z"
         style="font-family:'Open Sans';-inkscape-font-specification:'Open Sans'"
         id="path2933" />
      <path
         d="m 129.92532,164.15752 v -1.4303 h 0.16631 v 1.4303 z"
         style="font-family:'Open Sans';-inkscape-font-specification:'Open Sans'"
         id="path2935" />
      <path
         d="m 131.60215,164.15752 h -0.18979 l -0.78167,-1.2004 h -0.008 q 0.0156,0.21132 0.0156,0.38742 v 0.81298 h -0.15359 v -1.4303 h 0.18783 l 0.77972,1.1955 h 0.008 q -0.002,-0.0264 -0.009,-0.16925 -0.007,-0.14381 -0.005,-0.20544 v -0.82081 h 0.15555 z"
         style="font-family:'Open Sans';-inkscape-font-specification:'Open Sans'"
         id="path2937" />
      <path
         d="m 132.62449,163.40813 h 0.48623 v 0.69558 q -0.11349,0.0362 -0.23089,0.0548 -0.11739,0.0186 -0.27197,0.0186 -0.3248,0 -0.50579,-0.19273 -0.18098,-0.1937 -0.18098,-0.54198 0,-0.22306 0.089,-0.39035 0.09,-0.16827 0.25828,-0.25632 0.16827,-0.089 0.39426,-0.089 0.22892,0 0.42654,0.0841 l -0.0646,0.14675 q -0.1937,-0.0822 -0.37273,-0.0822 -0.26121,0 -0.40796,0.15555 -0.14675,0.15555 -0.14675,0.43144 0,0.28958 0.14088,0.43926 0.14186,0.14968 0.41578,0.14968 0.14871,0 0.29056,-0.0342 v -0.44024 h -0.31991 z"
         style="font-family:'Open Sans';-inkscape-font-specification:'Open Sans'"
         id="path2939" />
    </g>
    <g
       aria-label="PRIVATE QUARTERS"
       id="text286378"
       style="font-size:2.00359px;line-height:1.25;font-family:'Font Awesome 5 Duotone';-inkscape-font-specification:'Font Awesome 5 Duotone';fill:#ffffff;stroke-width:0.264582">
      <path
         d="m 46.413591,137.72443 q 0,0.21718 -0.148704,0.33458 -0.147726,0.11642 -0.423611,0.11642 h -0.16827 v 0.56253 h -0.166314 v -1.4303 h 0.370782 q 0.536117,0 0.536117,0.41677 z m -0.740585,0.30817 h 0.149682 q 0.2211,0 0.319909,-0.0714 0.09881,-0.0714 0.09881,-0.22893 0,-0.14185 -0.09294,-0.21131 -0.09294,-0.0695 -0.289581,-0.0695 h -0.18588 z"
         style="font-family:'Open Sans';-inkscape-font-specification:'Open Sans'"
         id="path2853" />
      <path
         d="m 46.878291,138.14315 v 0.59481 h -0.166314 v -1.4303 h 0.392305 q 0.263166,0 0.388391,0.10077 0.126203,0.10077 0.126203,0.30328 0,0.28371 -0.287625,0.3835 l 0.388391,0.64275 h -0.196641 l -0.346324,-0.59481 z m 0,-0.14284 h 0.227947 q 0.176097,0 0.258276,-0.0695 0.08218,-0.0704 0.08218,-0.21034 0,-0.14185 -0.08413,-0.20447 -0.08316,-0.0626 -0.268059,-0.0626 h -0.216207 z"
         style="font-family:'Open Sans';-inkscape-font-specification:'Open Sans'"
         id="path2855" />
      <path
         d="m 47.952481,138.73796 v -1.4303 h 0.166314 v 1.4303 z"
         style="font-family:'Open Sans';-inkscape-font-specification:'Open Sans'"
         id="path2857" />
      <path
         d="m 49.328971,137.30766 h 0.179032 l -0.515573,1.4303 h -0.164357 l -0.512637,-1.4303 h 0.176097 l 0.328714,0.92549 q 0.05674,0.15947 0.09,0.31013 0.03522,-0.15849 0.09196,-0.316 z"
         style="font-family:'Open Sans';-inkscape-font-specification:'Open Sans'"
         id="path2859" />
      <path
         d="m 50.604695,138.73796 -0.178054,-0.45492 h -0.573293 l -0.176097,0.45492 h -0.16827 l 0.565467,-1.43617 h 0.139899 l 0.562531,1.43617 z m -0.229905,-0.6046 -0.166313,-0.44318 q -0.03229,-0.0841 -0.06653,-0.20642 -0.02152,0.0939 -0.06163,0.20642 l -0.16827,0.44318 z"
         style="font-family:'Open Sans';-inkscape-font-specification:'Open Sans'"
         id="path2861" />
      <path
         d="m 51.413761,138.73796 h -0.166313 v -1.28257 h -0.45296 v -0.14773 h 1.072233 v 0.14773 h -0.45296 z"
         style="font-family:'Open Sans';-inkscape-font-specification:'Open Sans'"
         id="path2863" />
      <path
         d="m 52.8783,138.73796 h -0.797327 v -1.4303 H 52.8783 v 0.14773 h -0.631014 v 0.46079 h 0.592859 v 0.14674 h -0.592859 v 0.52634 H 52.8783 Z"
         style="font-family:'Open Sans';-inkscape-font-specification:'Open Sans'"
         id="path2865" />
      <path
         d="m 54.958199,138.02086 q 0,0.2749 -0.11055,0.45687 -0.11055,0.18197 -0.312083,0.24653 l 0.340454,0.35415 h -0.241644 l -0.27882,-0.32284 -0.05381,0.002 q -0.315996,0 -0.48818,-0.19273 -0.171205,-0.19371 -0.171205,-0.5459 0,-0.34926 0.172184,-0.54101 0.172183,-0.19273 0.489158,-0.19273 0.308169,0 0.481331,0.19567 0.173162,0.19566 0.173162,0.54003 z m -1.139738,0 q 0,0.29056 0.123268,0.44122 0.124246,0.14968 0.36002,0.14968 0.237731,0 0.359042,-0.14968 0.121311,-0.14969 0.121311,-0.44122 0,-0.28861 -0.121311,-0.43731 -0.120333,-0.14968 -0.357085,-0.14968 -0.237731,0 -0.361977,0.15066 -0.123268,0.14968 -0.123268,0.43633 z"
         style="font-family:'Open Sans';-inkscape-font-specification:'Open Sans'"
         id="path2867" />
      <path
         d="m 56.358167,137.30766 v 0.92549 q 0,0.24458 -0.147725,0.38448 -0.147726,0.1399 -0.406001,0.1399 -0.258275,0 -0.400131,-0.14088 -0.140878,-0.14088 -0.140878,-0.38741 v -0.92158 h 0.166314 v 0.93332 q 0,0.17903 0.09783,0.2749 0.09783,0.0959 0.287624,0.0959 0.180989,0 0.27882,-0.0959 0.09783,-0.0969 0.09783,-0.27686 v -0.93136 z"
         style="font-family:'Open Sans';-inkscape-font-specification:'Open Sans'"
         id="path2869" />
      <path
         d="m 57.636826,138.73796 -0.178053,-0.45492 H 56.88548 l -0.176097,0.45492 h -0.16827 l 0.565466,-1.43617 h 0.139899 l 0.562532,1.43617 z m -0.229904,-0.6046 -0.166314,-0.44318 q -0.03228,-0.0841 -0.06652,-0.20642 -0.02152,0.0939 -0.06163,0.20642 l -0.16827,0.44318 z"
         style="font-family:'Open Sans';-inkscape-font-specification:'Open Sans'"
         id="path2871" />
      <path
         d="m 58.171965,138.14315 v 0.59481 h -0.166314 v -1.4303 h 0.392304 q 0.263167,0 0.388392,0.10077 0.126202,0.10077 0.126202,0.30328 0,0.28371 -0.287624,0.3835 l 0.388391,0.64275 h -0.196642 l -0.346323,-0.59481 z m 0,-0.14284 h 0.227947 q 0.176097,0 0.258275,-0.0695 0.08218,-0.0704 0.08218,-0.21034 0,-0.14185 -0.08414,-0.20447 -0.08316,-0.0626 -0.268059,-0.0626 h -0.216207 z"
         style="font-family:'Open Sans';-inkscape-font-specification:'Open Sans'"
         id="path2873" />
      <path
         d="m 59.686397,138.73796 h -0.166313 v -1.28257 h -0.452961 v -0.14773 h 1.072234 v 0.14773 h -0.45296 z"
         style="font-family:'Open Sans';-inkscape-font-specification:'Open Sans'"
         id="path2875" />
      <path
         d="m 61.150936,138.73796 h -0.797327 v -1.4303 h 0.797327 v 0.14773 h -0.631014 v 0.46079 h 0.592859 v 0.14674 h -0.592859 v 0.52634 h 0.631014 z"
         style="font-family:'Open Sans';-inkscape-font-specification:'Open Sans'"
         id="path2877" />
      <path
         d="m 61.635201,138.14315 v 0.59481 h -0.166313 v -1.4303 h 0.392304 q 0.263167,0 0.388392,0.10077 0.126202,0.10077 0.126202,0.30328 0,0.28371 -0.287625,0.3835 l 0.388392,0.64275 h -0.196642 l -0.346323,-0.59481 z m 0,-0.14284 h 0.227948 q 0.176097,0 0.258275,-0.0695 0.08218,-0.0704 0.08218,-0.21034 0,-0.14185 -0.08414,-0.20447 -0.08316,-0.0626 -0.268059,-0.0626 h -0.216208 z"
         style="font-family:'Open Sans';-inkscape-font-specification:'Open Sans'"
         id="path2879" />
      <path
         d="m 63.516502,138.3574 q 0,0.18881 -0.136964,0.29447 -0.136964,0.10566 -0.37176,0.10566 -0.254362,0 -0.391326,-0.0656 v -0.16044 q 0.08805,0.0372 0.19175,0.0587 0.103701,0.0215 0.205446,0.0215 0.166314,0 0.250449,-0.0626 0.08414,-0.0636 0.08414,-0.1761 0,-0.0744 -0.03033,-0.12131 -0.02935,-0.0479 -0.09979,-0.0881 -0.06946,-0.0401 -0.212294,-0.091 -0.199577,-0.0714 -0.285668,-0.16925 -0.08511,-0.0978 -0.08511,-0.25534 0,-0.16534 0.124246,-0.26317 0.124246,-0.0978 0.328714,-0.0978 0.213273,0 0.392305,0.0783 l -0.05185,0.14479 q -0.177075,-0.0743 -0.344367,-0.0743 -0.132073,0 -0.206425,0.0567 -0.07435,0.0567 -0.07435,0.1575 0,0.0744 0.02739,0.12229 0.02739,0.047 0.09196,0.0871 0.06555,0.0391 0.199576,0.0871 0.225013,0.0802 0.309148,0.17219 0.08511,0.092 0.08511,0.23871 z"
         style="font-family:'Open Sans';-inkscape-font-specification:'Open Sans'"
         id="path2881" />
    </g>
    <g
       aria-label="OFFICES"
       id="text286378-9"
       style="font-size:2.00359px;line-height:1.25;font-family:'Font Awesome 5 Duotone';-inkscape-font-specification:'Font Awesome 5 Duotone';fill:#ffffff;stroke-width:0.264582">
      <path
         d="m 140.8381,119.25698 q 0,0.34339 -0.17414,0.54003 -0.17316,0.19664 -0.48231,0.19664 -0.31599,0 -0.48818,-0.19273 -0.1712,-0.19371 -0.1712,-0.5459 0,-0.34926 0.17218,-0.54101 0.17219,-0.19273 0.48916,-0.19273 0.30817,0 0.48133,0.19567 0.17316,0.19566 0.17316,0.54003 z m -1.13974,0 q 0,0.29056 0.12327,0.44122 0.12425,0.14968 0.36002,0.14968 0.23773,0 0.35904,-0.14968 0.12132,-0.14968 0.12132,-0.44122 0,-0.28861 -0.12132,-0.43731 -0.12033,-0.14968 -0.35708,-0.14968 -0.23773,0 -0.36198,0.15066 -0.12327,0.14968 -0.12327,0.43633 z"
         style="font-family:'Open Sans';-inkscape-font-specification:'Open Sans'"
         id="path2754" />
      <path
         d="m 141.32433,119.97408 h -0.16632 v -1.43029 h 0.79733 v 0.14772 h -0.63101 v 0.5234 h 0.59285 v 0.14773 h -0.59285 z"
         style="font-family:'Open Sans';-inkscape-font-specification:'Open Sans'"
         id="path2756" />
      <path
         d="m 142.35743,119.97408 h -0.16632 v -1.43029 h 0.79733 v 0.14772 h -0.63101 v 0.5234 h 0.59286 v 0.14773 h -0.59286 z"
         style="font-family:'Open Sans';-inkscape-font-specification:'Open Sans'"
         id="path2758" />
      <path
         d="m 143.22421,119.97408 v -1.43029 h 0.16632 v 1.43029 z"
         style="font-family:'Open Sans';-inkscape-font-specification:'Open Sans'"
         id="path2760" />
      <path
         d="m 144.39624,118.67195 q -0.23578,0 -0.37274,0.1575 -0.13599,0.15653 -0.13599,0.42948 0,0.28078 0.1311,0.43438 0.13207,0.15261 0.37567,0.15261 0.14968,0 0.34143,-0.0538 v 0.14577 q -0.1487,0.0558 -0.36687,0.0558 -0.31599,0 -0.48818,-0.19175 -0.1712,-0.19175 -0.1712,-0.54492 0,-0.2211 0.0822,-0.38742 0.0831,-0.16631 0.23871,-0.25631 0.15653,-0.09 0.36784,-0.09 0.22502,0 0.39329,0.0822 l -0.0704,0.14283 q -0.1624,-0.0763 -0.3248,-0.0763 z"
         style="font-family:'Open Sans';-inkscape-font-specification:'Open Sans'"
         id="path2762" />
      <path
         d="m 145.84512,119.97408 h -0.79733 v -1.43029 h 0.79733 v 0.14772 h -0.63101 v 0.46079 h 0.59286 v 0.14675 h -0.59286 v 0.52633 h 0.63101 z"
         style="font-family:'Open Sans';-inkscape-font-specification:'Open Sans'"
         id="path2764" />
      <path
         d="m 146.97018,119.59352 q 0,0.18881 -0.13696,0.29447 -0.13696,0.10566 -0.37176,0.10566 -0.25436,0 -0.39133,-0.0656 v -0.16044 q 0.088,0.0372 0.19175,0.0587 0.1037,0.0215 0.20545,0.0215 0.16631,0 0.25045,-0.0626 0.0841,-0.0636 0.0841,-0.1761 0,-0.0744 -0.0303,-0.12131 -0.0293,-0.0479 -0.0998,-0.088 -0.0695,-0.0401 -0.2123,-0.091 -0.19957,-0.0714 -0.28567,-0.16925 -0.0851,-0.0978 -0.0851,-0.25534 0,-0.16534 0.12425,-0.26317 0.12424,-0.0978 0.32871,-0.0978 0.21327,0 0.39231,0.0783 l -0.0519,0.14479 q -0.17708,-0.0744 -0.34437,-0.0744 -0.13207,0 -0.20643,0.0567 -0.0744,0.0567 -0.0744,0.15751 0,0.0743 0.0274,0.12229 0.0274,0.047 0.092,0.0871 0.0655,0.0391 0.19957,0.0871 0.22502,0.0802 0.30915,0.17218 0.0851,0.092 0.0851,0.23871 z"
         style="font-family:'Open Sans';-inkscape-font-specification:'Open Sans'"
         id="path2766" />
    </g>
    <rect
       style="fill:#d0d0d0;fill-opacity:1;stroke:none;stroke-width:1;stroke-linecap:round;stroke-linejoin:round;stroke-miterlimit:4;stroke-dasharray:none;stroke-opacity:1;stop-color:#000000"
       id="rect324413"
       width="8.1330271"
       height="1.2243267"
       x="128.01062"
       y="108.10831"
       ry="0"
       rx="0" />
    <rect
       style="fill:#aeaeae;fill-opacity:1;stroke:none;stroke-width:1;stroke-linecap:round;stroke-linejoin:round;stroke-miterlimit:4;stroke-dasharray:none;stroke-opacity:1;stop-color:#000000"
       id="rect324469"
       width="8.1330271"
       height="1.2243267"
       x="128.01062"
       y="108.10831"
       ry="0"
       rx="0" />
    <rect
       style="fill:#aeaeae;fill-opacity:1;stroke:none;stroke-width:1;stroke-linecap:round;stroke-linejoin:round;stroke-miterlimit:4;stroke-dasharray:none;stroke-opacity:1;stop-color:#000000"
       id="rect324551"
       width="8.1330271"
       height="1.2243267"
       x="148.23326"
       y="-48.966"
       ry="0"
       rx="0"
       transform="rotate(90)" />
    <path
       style="fill:none;stroke:#000000;stroke-width:0.264583px;stroke-linecap:butt;stroke-linejoin:miter;stroke-opacity:1"
       d="M 40.315321,129.95353 H 69.977284"
       id="path369242" />
    <path
       style="fill:none;stroke:#000000;stroke-width:0.264583px;stroke-linecap:butt;stroke-linejoin:miter;stroke-opacity:1"
       d="M 76.243104,129.95353 H 129.38303"
       id="path369324" />
    <path
       style="fill:none;stroke:#000000;stroke-width:0.264583px;stroke-linecap:butt;stroke-linejoin:miter;stroke-opacity:1"
       d="m 68.649734,108.52782 v 15.14494"
       id="path369345" />
    <path
       style="fill:none;stroke:#000000;stroke-width:0.264583px;stroke-linecap:butt;stroke-linejoin:miter;stroke-opacity:1"
       d="m 68.649734,128.86039 v 2.42069"
       id="path369446" />
    <path
       style="fill:none;stroke:#000000;stroke-width:0.264583px;stroke-linecap:butt;stroke-linejoin:miter;stroke-opacity:1"
       d="m 68.649734,137.11762 v 11.87247"
       id="path369703" />
    <path
       style="fill:none;stroke:#000000;stroke-width:0.264583px;stroke-linecap:butt;stroke-linejoin:miter;stroke-opacity:1"
       d="m 68.649734,154.8815 v 2.53496"
       id="path369998" />
    <path
       style="fill:none;stroke:#000000;stroke-width:0.264583px;stroke-linecap:butt;stroke-linejoin:miter;stroke-opacity:1"
       d="M 68.698888,122.84218 H 81.355446"
       id="path370213" />
    <path
       style="fill:none;stroke:#000000;stroke-width:0.264583px;stroke-linecap:butt;stroke-linejoin:miter;stroke-opacity:1"
       d="m 87.621266,122.84218 h 9.19364"
       id="path370215" />
    <path
       style="fill:none;stroke:#000000;stroke-width:0.264583px;stroke-linecap:butt;stroke-linejoin:miter;stroke-opacity:1"
       d="m 96.801659,128.58409 v 1.36945"
       id="path370430" />
    <path
       style="fill:none;stroke:#000000;stroke-width:0.264583px;stroke-linecap:butt;stroke-linejoin:miter;stroke-opacity:1"
       d="m 96.801659,108.60412 v 15.53666"
       id="path370489" />
    <path
       style="fill:none;stroke:#000000;stroke-width:0.264583px;stroke-linecap:butt;stroke-linejoin:miter;stroke-opacity:1"
       d="m 124.25766,108.60412 v 39.06122"
       id="path370708" />
    <path
       style="fill:none;stroke:#000000;stroke-width:0.264583px;stroke-linecap:butt;stroke-linejoin:miter;stroke-opacity:1"
       d="m 103.703,157.50088 h 58.4745"
       id="path370767" />
    <path
       style="fill:none;stroke:#000000;stroke-width:0.264583px;stroke-linecap:butt;stroke-linejoin:miter;stroke-opacity:1"
       d="M 48.258491,157.50088 H 85.744532"
       id="path370906" />
    <path
       style="fill:none;stroke:#000000;stroke-width:0.264583px;stroke-linecap:butt;stroke-linejoin:miter;stroke-opacity:1"
       d="M 40.373444,146.41005 H 68.677035"
       id="path371201" />
    <path
       style="fill:none;stroke:#000000;stroke-width:0.264583px;stroke-linecap:butt;stroke-linejoin:miter;stroke-opacity:1"
       d="m 162.29924,108.60412 v 48.94329"
       id="path371222" />
    <path
       style="fill:none;stroke:#000000;stroke-width:0.264583px;stroke-linecap:butt;stroke-linejoin:miter;stroke-opacity:1"
       d="M 40.315323,108.52782 H 127.82385"
       id="path371437" />
    <path
       style="fill:none;stroke:#000000;stroke-width:0.264583px;stroke-linecap:butt;stroke-linejoin:miter;stroke-opacity:1"
       d="M 162.31073,108.52782 H 136.13178"
       id="path371576" />
    <path
       style="fill:none;stroke:#000000;stroke-width:0.264583px;stroke-linecap:butt;stroke-linejoin:miter;stroke-opacity:1"
       d="m 40.478733,108.60412 v 37.8369"
       id="path371833" />
    <path
       style="fill:none;stroke:#000000;stroke-width:0.264583px;stroke-linecap:butt;stroke-linejoin:miter;stroke-opacity:1"
       d="M 162.29578,129.95353 H 137.2537"
       id="path371930" />
    <path
       style="fill:none;stroke:#000000;stroke-width:0.264583px;stroke-linecap:butt;stroke-linejoin:miter;stroke-opacity:1"
       d="m 48.360909,146.41005 v 1.77139"
       id="path372283" />
    <path
       style="fill:none;stroke:#000000;stroke-width:0.264583px;stroke-linecap:butt;stroke-linejoin:miter;stroke-opacity:1"
       d="m 48.360909,156.34312 c -10e-7,0.94413 -10e-7,1.3595 0,0.99842"
       id="path372285" />
  </g>
  <g
     id="layer4"
     transform="translate(-40.315321,-108.10831)" />
  <g
     id="layer2"
     style="display:none">
    <rect
       style="fill:#aad400;fill-opacity:1;stroke:none;stroke-width:1;stroke-linecap:round;stroke-linejoin:round;stroke-miterlimit:4;stroke-dasharray:none;stroke-opacity:1;stop-color:#000000"
       id="rect306307"
       width="8.1330271"
       height="1.2243267"
       x="70.237244"
       y="156.18912"
       ry="0"
       rx="0"
       transform="translate(-40.315322,-108.10831)" />
    <rect
       style="fill:#aad400;fill-opacity:1;stroke:none;stroke-width:1;stroke-linecap:round;stroke-linejoin:round;stroke-miterlimit:4;stroke-dasharray:none;stroke-opacity:1;stop-color:#000000"
       id="rect306411"
       width="8.1330271"
       height="1.2243267"
       x="79.069885"
       y="129.95355"
       ry="0"
       rx="0"
       transform="translate(-40.315322,-108.10831)" />
    <rect
       style="fill:#aad400;fill-opacity:1;stroke:none;stroke-width:1;stroke-linecap:round;stroke-linejoin:round;stroke-miterlimit:4;stroke-dasharray:none;stroke-opacity:1;stop-color:#000000"
       id="rect306413"
       width="8.1330271"
       height="1.2243267"
       x="114.22556"
       y="156.10167"
       ry="0"
       rx="0"
       transform="translate(-40.315322,-108.10831)" />
    <rect
       style="fill:#aad400;fill-opacity:1;stroke:none;stroke-width:1;stroke-linecap:round;stroke-linejoin:round;stroke-miterlimit:4;stroke-dasharray:none;stroke-opacity:1;stop-color:#000000"
       id="rect306415"
       width="8.1330271"
       height="1.2243267"
       x="131.04543"
       y="-124.18171"
       ry="0"
       rx="0"
       transform="rotate(90,33.896495,-74.211816)" />
    <rect
       style="fill:#aad400;fill-opacity:1;stroke:none;stroke-width:1;stroke-linecap:round;stroke-linejoin:round;stroke-miterlimit:4;stroke-dasharray:none;stroke-opacity:1;stop-color:#000000"
       id="rect306417"
       width="8.1330271"
       height="1.2243267"
       x="147.69293"
       y="-162.22328"
       ry="0"
       rx="0"
       transform="rotate(90,33.896495,-74.211816)" />
    <rect
       style="fill:#aad400;fill-opacity:1;stroke:none;stroke-width:1;stroke-linecap:round;stroke-linejoin:round;stroke-miterlimit:4;stroke-dasharray:none;stroke-opacity:1;stop-color:#000000"
       id="rect306419"
       width="8.1330271"
       height="1.2243267"
       x="-62.484379"
       y="-157.35637"
       ry="0"
       rx="0"
       transform="rotate(180,-20.157661,-54.054155)" />
    <rect
       style="fill:#aad400;fill-opacity:1;stroke:none;stroke-width:1;stroke-linecap:round;stroke-linejoin:round;stroke-miterlimit:4;stroke-dasharray:none;stroke-opacity:1;stop-color:#000000"
       id="rect306421"
       width="8.1330271"
       height="1.2243267"
       x="-122.95739"
       y="122.95737"
       ry="0"
       rx="0"
       transform="rotate(-90,-74.211816,-33.896494)" />
    <rect
       style="fill:#aad400;fill-opacity:1;stroke:none;stroke-width:1;stroke-linecap:round;stroke-linejoin:round;stroke-miterlimit:4;stroke-dasharray:none;stroke-opacity:1;stop-color:#000000"
       id="rect372659"
       width="4.6701074"
       height="1.2243195"
       x="108.37222"
       y="130.17113"
       ry="0"
       rx="0"
       transform="translate(-40.315322,-108.10831)" />
  </g>
  <g
     id="layer3" />
</svg>
